HIERARCHY
ROOT Hips
{
	OFFSET 0.00000 0.00000 0.00000
	CHANNELS 6 Xposition Yposition Zposition Zrotation Yrotation Xrotation 
	JOINT LHipJoint
	{
		OFFSET 0 0 0
		CHANNELS 3 Zrotation Yrotation Xrotation
		JOINT LeftHip
		{
			OFFSET 1.53139 -1.83434 0.76626
			CHANNELS 3 Zrotation Yrotation Xrotation
			JOINT LeftKnee
			{
				OFFSET 2.56112 -7.03663 0.00000
				CHANNELS 3 Zrotation Yrotation Xrotation
				JOINT LeftAnkle
				{
					OFFSET 2.59983 -7.14299 0.00000
					CHANNELS 3 Zrotation Yrotation Xrotation
					JOINT LeftToe
					{
						OFFSET 0.13742 -0.37757 2.00054
						CHANNELS 3 Zrotation Yrotation Xrotation
						End Site
						{
							OFFSET 0.00000 -0.00000 1.02897
						}
					}
				}
			}
		}
	}
	JOINT RHipJoint
	{
		OFFSET 0 0 0
		CHANNELS 3 Zrotation Yrotation Xrotation
		JOINT RightHip
		{
			OFFSET -1.40122 -1.83435 0.76627
			CHANNELS 3 Zrotation Yrotation Xrotation
			JOINT RightKnee
			{
				OFFSET -2.54052 -6.98003 0.00000
				CHANNELS 3 Zrotation Yrotation Xrotation
				JOINT RightAnkle
				{
					OFFSET -2.63179 -7.23079 0.00000
					CHANNELS 3 Zrotation Yrotation Xrotation
					JOINT RightToe
					{
						OFFSET -0.24131 -0.66299 2.03908
						CHANNELS 3 Zrotation Yrotation Xrotation
						End Site
						{
							OFFSET -0.00000 -0.00000 1.07391
						}
					}
				}
			}
		}
	}
	JOINT lowerback
	{
		OFFSET 0 0 0
		CHANNELS 3 Zrotation Yrotation Xrotation
		JOINT Chest
		{
			OFFSET 0.01174 2.10302 -0.29778
			CHANNELS 3 Zrotation Yrotation Xrotation
			JOINT Chest2
			{
				OFFSET 0.00772 2.13227 -0.01247
				CHANNELS 3 Zrotation Yrotation Xrotation
				JOINT lowerneck
				{
					OFFSET 0 0 0
					CHANNELS 3 Zrotation Yrotation Xrotation
					JOINT Neck
					{
						OFFSET -0.09219 1.60848 0.31481
						CHANNELS 3 Zrotation Yrotation Xrotation
						JOINT Head
						{
							OFFSET 0.13974 1.65456 -0.31134
							CHANNELS 3 Zrotation Yrotation Xrotation
							End Site
							{
								OFFSET 0.04742 1.69515 -0.14578
							}
						}
					}
				}
				JOINT LeftCollar
				{
					OFFSET 0 0 0
					CHANNELS 3 Zrotation Yrotation Xrotation
					JOINT LeftShoulder
					{
						OFFSET 3.24909 1.02882 -0.23993
CHANNELS 3 Zrotation Xrotation Yrotation
						JOINT LeftElbow
						{
OFFSET 0 -5.329550 -0.000000
CHANNELS 3 Zrotation Xrotation Yrotation
							JOINT LeftWrist
							{
OFFSET 0 -3.692320 -0.000000
CHANNELS 3 Zrotation Xrotation Yrotation
								JOINT lhand
								{
									OFFSET 0 0 0
CHANNELS 3 Zrotation Xrotation Yrotation
									JOINT LFingers
									{
OFFSET 0 -0.536600 -0.000000
CHANNELS 3 Zrotation Xrotation Yrotation
										End Site
										{
OFFSET 0 -0.432620 -0.000000
										}
									}
								}
								JOINT LThumb
								{
OFFSET 0 0.000000 0.000000
CHANNELS 3 Zrotation Xrotation Yrotation
									End Site
									{
OFFSET 0 -0.439220 0.439220
									}
								}
							}
						}
					}
				}
				JOINT RightCollar
				{
					OFFSET 0 0 0
					CHANNELS 3 Zrotation Yrotation Xrotation
					JOINT RightShoulder
					{
						OFFSET -3.21387 0.93002 -0.34594
CHANNELS 3 Zrotation Xrotation Yrotation
						JOINT RightElbow
						{
OFFSET 0 -5.234310 0.000000
CHANNELS 3 Zrotation Xrotation Yrotation
							JOINT RightWrist
							{
OFFSET 0 -3.553010 -0.000000
CHANNELS 3 Zrotation Xrotation Yrotation
								JOINT rhand
								{
									OFFSET 0 0 0
CHANNELS 3 Zrotation Xrotation Yrotation
									JOINT RFingers
									{
OFFSET 0 -0.772520 -0.000000
CHANNELS 3 Zrotation Xrotation Yrotation
										End Site
										{
OFFSET 0 -0.622830 -0.000000
										}
									}
								}
								JOINT RThumb
								{
OFFSET 0 0.000000 0.000000
CHANNELS 3 Zrotation Xrotation Yrotation
									End Site
									{
OFFSET 0 -0.632340 0.632340
									}
								}
							}
						}
					}
				}
			}
		}
	}
}
MOTION
Frames: 9
Frame Time: 0.008333333333333333
2.245778 18.095830 2.654505 1.306134 -63.052616 -2.226629 0.000000 0.000000 0.000000 -14.539967 -0.816969 -12.103325 10.468506 17.665000 61.043049 0.058676 -4.497914 8.226280 0.137822 -2.389427 -6.583255 0.000000 0.000000 0.000000 30.201224 -1.757345 -5.611168 -0.946227 -6.195163 17.351721 -0.249125 3.398334 -8.872397 -1.541391 -7.836693 22.219409 0.147714 1.136266 10.512917 1.027261 1.559334 0.739851 0.759533 0.766096 -5.149325 -13.170224 -7.427805 -17.866311 10.625119 -10.347590 28.126805 4.602907 -4.727829 13.829762 0.000000 0.000000 0.000000 4.041802 7.215161 -26.246969 20.535672 -31.282340 5.806970 20.078126 14.401189 -25.197610 0.000000 0.000000 0.000000 -7.125000 0.000000 0.000000 -10.437782 56.283422 2.910493 0.000000 0.000000 0.000000 0.314455 2.369703 12.352587 -16.802005 -26.595767 -3.998410 -15.629547 5.558644 -8.709313 0.000000 0.000000 0.000000 7.125000 0.000000 0.000000 8.109933 20.979964 4.715159
2.177935 18.098890 2.695914 1.320002 -63.719848 -2.132287 0.000000 0.000000 0.000000 -14.514900 -1.220707 -12.666774 10.479119 17.670599 61.077947 0.035627 -4.424341 7.503641 0.158266 -2.562681 -7.063365 0.000000 0.000000 0.000000 30.185273 -1.586435 -5.368704 -0.955082 -6.223290 17.433562 -0.255376 3.763202 -8.992392 -1.494773 -7.723078 21.876027 0.104743 1.244997 10.388950 1.016583 1.698601 0.704953 0.753999 0.836087 -5.119375 -13.240671 -7.463615 -17.879333 10.704356 -10.404169 28.115216 4.635722 -4.750487 13.846885 0.000000 0.000000 0.000000 3.891206 7.368882 -25.982108 20.535216 -31.281819 5.806709 20.234777 14.154167 -25.182831 0.000000 0.000000 0.000000 -7.125000 0.000000 0.000000 -10.266547 56.301067 2.866480 0.000000 0.000000 0.000000 0.251365 2.238510 12.726961 -16.949216 -26.790702 -4.064430 -15.586640 5.209532 -8.499338 0.000000 0.000000 0.000000 7.125000 0.000000 0.000000 8.146198 21.197491 4.696278
2.111222 18.093225 2.735188 1.280640 -64.401141 -2.037505 0.000000 0.000000 0.000000 -14.437231 -1.576236 -13.133932 10.463556 17.662389 61.026660 0.001217 -4.682201 6.684145 0.215871 -2.974151 -8.207910 0.000000 0.000000 0.000000 30.196501 -1.354574 -5.054053 -0.965569 -6.256439 17.530218 -0.261375 4.018534 -9.110379 -1.472950 -7.669034 21.713300 0.081858 1.370425 10.299508 0.985254 1.860465 0.712739 0.712748 0.916248 -5.063124 -13.186643 -7.482099 -17.893798 10.769846 -10.462882 28.047886 4.639285 -4.761783 13.831368 0.000000 0.000000 0.000000 3.821271 7.425747 -25.815421 20.494650 -31.233654 5.785672 20.200415 13.811294 -25.089210 0.000000 0.000000 0.000000 -7.125000 0.000000 0.000000 -10.259082 56.199132 2.838913 0.000000 0.000000 0.000000 0.218656 2.144476 13.255125 -17.162650 -27.071132 -4.161334 -15.576124 4.499988 -8.165703 0.000000 0.000000 0.000000 7.125000 0.000000 0.000000 8.163444 21.540185 4.642307
2.046140 18.085228 2.775638 1.214957 -65.006483 -1.941118 0.000000 0.000000 0.000000 -14.335885 -1.963092 -13.572552 10.437707 17.648702 60.941413 -0.031915 -4.978078 5.854213 0.248318 -3.206303 -8.853639 0.000000 0.000000 0.000000 30.215990 -1.134830 -4.737467 -0.978347 -6.296466 17.647080 -0.268815 4.236918 -9.250538 -1.446335 -7.602348 21.512804 0.099924 1.467536 10.249992 0.954800 1.989632 0.716873 0.653216 0.979279 -5.031097 -13.129207 -7.492328 -17.910352 10.808979 -10.505645 28.012187 4.635542 -4.769282 13.825173 0.000000 0.000000 0.000000 3.763401 7.489851 -25.701374 20.462849 -31.195900 5.769185 20.162453 13.476004 -25.050644 0.000000 0.000000 0.000000 -7.125000 0.000000 0.000000 -10.280938 56.152212 2.833342 0.000000 0.000000 0.000000 0.198063 2.031809 13.645378 -17.350140 -27.316772 -4.246869 -15.542641 3.924144 -7.927135 0.000000 0.000000 0.000000 7.125000 0.000000 0.000000 8.194702 21.786335 4.614213
1.983180 18.074550 2.817763 1.116774 -65.509707 -1.842609 0.000000 0.000000 0.000000 -14.205537 -2.394176 -13.977852 10.399423 17.628388 60.815103 -0.062776 -5.308244 5.015160 0.245323 -3.187161 -8.800250 0.000000 0.000000 0.000000 30.245159 -0.934296 -4.421886 -0.994103 -6.345427 17.790188 -0.278190 4.411409 -9.420407 -1.412088 -7.515819 21.252891 0.171673 1.526004 10.252076 0.926543 2.074013 0.714009 0.571049 1.018930 -5.032725 -13.073409 -7.492393 -17.929625 10.813602 -10.527000 28.021497 4.623497 -4.772277 13.833052 0.000000 0.000000 0.000000 3.717629 7.568437 -25.652738 20.444749 -31.174414 5.759810 20.129183 13.155605 -25.089514 0.000000 0.000000 0.000000 -7.125000 0.000000 0.000000 -10.333807 56.184701 2.856325 0.000000 0.000000 0.000000 0.192138 1.892412 13.843828 -17.499694 -27.511707 -4.315689 -15.476882 3.544757 -7.821659 0.000000 0.000000 0.000000 7.125000 0.000000 0.000000 8.245617 21.897345 4.622417
1.920104 18.065266 2.862213 1.043804 -65.929678 -1.807774 0.000000 0.000000 0.000000 -14.103367 -2.868890 -14.326857 10.344756 17.599127 60.634472 -0.076151 -5.342987 4.154029 0.180571 -2.706092 -7.463444 0.000000 0.000000 0.000000 30.248590 -0.767574 -4.089921 -1.012648 -6.402348 17.956594 -0.289716 4.589618 -9.621124 -1.369301 -7.405295 20.922099 0.249988 1.566577 10.276468 0.916645 2.135794 0.733395 0.507473 1.047310 -5.023372 -13.131074 -7.491122 -17.979107 10.899793 -10.531508 28.030866 4.667457 -4.768766 13.858707 0.000000 0.000000 0.000000 3.593369 7.632034 -25.523521 20.432633 -31.160016 5.753513 19.970423 13.045284 -25.279610 0.000000 0.000000 0.000000 -7.125000 0.000000 0.000000 -10.590130 56.343725 2.969939 0.000000 0.000000 0.000000 0.126432 1.751214 14.044313 -17.651863 -27.708791 -4.386309 -15.399387 3.196858 -7.881875 0.000000 0.000000 0.000000 7.125000 0.000000 0.000000 8.299785 21.839061 4.664665
1.857525 18.055246 2.906733 0.894306 -66.330876 -1.708548 0.000000 0.000000 0.000000 -13.969465 -3.352490 -14.667304 10.282124 17.565375 60.427142 -0.083516 -5.297428 3.306618 0.124771 -2.271445 -6.256750 0.000000 0.000000 0.000000 30.280754 -0.653548 -3.775403 -1.030903 -6.458095 18.119638 -0.300595 4.787675 -9.812709 -1.307940 -7.242542 20.436908 0.364552 1.598285 10.311977 0.914670 2.190438 0.752055 0.432496 1.071383 -5.019749 -13.184867 -7.488251 -18.009262 10.972274 -10.530014 28.020471 4.705925 -4.764376 13.869476 0.000000 0.000000 0.000000 3.464208 7.679991 -25.373000 20.405691 -31.127979 5.739582 19.848429 12.996355 -25.449529 0.000000 0.000000 0.000000 -7.125000 0.000000 0.000000 -10.798770 56.489896 3.067110 0.000000 0.000000 0.000000 0.048289 1.636948 14.295537 -17.825278 -27.932450 -4.467288 -15.326973 2.833546 -7.929880 0.000000 0.000000 0.000000 7.125000 0.000000 0.000000 8.350656 21.793041 4.702668
1.795867 18.043592 2.950877 0.601123 -66.716318 -1.479170 0.000000 0.000000 0.000000 -13.772121 -3.842627 -15.004566 10.208682 17.525464 60.183441 -0.083842 -5.171248 2.488790 0.098598 -2.021298 -5.564712 0.000000 0.000000 0.000000 30.370408 -0.627310 -3.495957 -1.048027 -6.509986 18.271536 -0.309841 5.020764 -9.981080 -1.214899 -6.990702 19.688356 0.543145 1.617882 10.362696 0.923004 2.237121 0.764556 0.332880 1.090134 -5.028864 -13.206938 -7.482782 -17.997933 11.002224 -10.521354 27.974374 4.722267 -4.759818 13.849488 0.000000 0.000000 0.000000 3.343301 7.702975 -25.201570 20.350675 -31.062545 5.711195 19.820172 13.012502 -25.550057 0.000000 0.000000 0.000000 -7.125000 0.000000 0.000000 -10.876965 56.585280 3.114834 0.000000 0.000000 0.000000 -0.039282 1.571710 14.637943 -18.036490 -28.203627 -4.566579 -15.266291 2.435537 -7.919723 0.000000 0.000000 0.000000 7.125000 0.000000 0.000000 8.394865 21.806063 4.725586
1.736132 18.025847 2.994753 0.316380 -67.105874 -1.219663 0.000000 0.000000 0.000000 -13.571839 -4.347401 -15.364479 10.113657 17.473051 59.867246 -0.081015 -5.067505 1.740731 0.093045 -1.967478 -5.415819 0.000000 0.000000 0.000000 30.473205 -0.759148 -3.379770 -1.071347 -6.579614 18.475788 -0.322665 5.273138 -10.204796 -0.936217 -6.107624 17.114414 0.721096 1.637640 10.395787 0.917609 2.283857 0.759962 0.219534 1.108886 -5.045084 -13.175481 -7.480625 -17.964968 10.975066 -10.516434 27.912143 4.704953 -4.758679 13.810802 0.000000 0.000000 0.000000 3.257333 7.726920 -25.093284 20.258797 -30.952770 5.663896 20.072596 13.237477 -25.506931 0.000000 0.000000 0.000000 -7.125000 0.000000 0.000000 -10.590553 56.594814 3.034024 0.000000 0.000000 0.000000 -0.086840 1.486437 14.879166 -18.215969 -28.432494 -4.651766 -15.363687 2.301649 -7.755443 0.000000 0.000000 0.000000 7.125000 0.000000 0.000000 8.329718 21.970216 4.656939
